inDegrees=no
num_controls=7
num_derivatives=13
num_iterations=152
num_multipliers=7
num_parameters=0
num_slacks=7
num_states=26
objective=5.482811
objective_accelerations=0.656148
objective_balance=0.062777
objective_effort=0.351760
objective_height=4.368566
objective_ligament=0.043561
solver_duration=1702.113342
status=Solve_Succeeded
success=true
DataType=double
version=3
OpenSimVersion=4.4-2022-07-23-0e9fedc
endheader
time	/jointset/ground_pelvis/pelvis_tilt/value	/jointset/ground_pelvis/pelvis_tx/value	/jointset/ground_pelvis/pelvis_ty/value	/jointset/hip_l/hip_flexion_l/value	/jointset/hip_l/hip_adduction_l/value	/jointset/hip_l/hip_rotation_l/value	/jointset/back/lumbar_extension/value	/jointset/patellofemoral_l/patellar_flexion_l/value	/jointset/knee_l/knee_flexion_l/value	/jointset/knee_l/knee_adduction_l/value	/jointset/knee_l/knee_rotation_l/value	/jointset/ankle_l/ankle_angle_l/value	/jointset/subtalar_l/subtalar_angle_l/value	/jointset/ground_pelvis/pelvis_tilt/speed	/jointset/ground_pelvis/pelvis_tx/speed	/jointset/ground_pelvis/pelvis_ty/speed	/jointset/hip_l/hip_flexion_l/speed	/jointset/hip_l/hip_adduction_l/speed	/jointset/hip_l/hip_rotation_l/speed	/jointset/back/lumbar_extension/speed	/jointset/patellofemoral_l/patellar_flexion_l/speed	/jointset/knee_l/knee_flexion_l/speed	/jointset/knee_l/knee_adduction_l/speed	/jointset/knee_l/knee_rotation_l/speed	/jointset/ankle_l/ankle_angle_l/speed	/jointset/subtalar_l/subtalar_angle_l/speed	/forceset/tau_hip_flexion_l	/forceset/tau_hip_adduction_l	/forceset/tau_hip_rotation_l	/forceset/tau_knee_flexion_l	/forceset/tau_ankle_angle_l	/forceset/tau_subtalar_angle_l	/forceset/tau_lumbar_extension	lambda_cid13_p0	lambda_cid13_p1	lambda_cid13_p2	lambda_cid13_p3	lambda_cid13_p4	lambda_cid13_p5	lambda_cid14_p0	/jointset/ground_pelvis/pelvis_tilt/accel	/jointset/ground_pelvis/pelvis_tx/accel	/jointset/ground_pelvis/pelvis_ty/accel	/jointset/hip_l/hip_flexion_l/accel	/jointset/hip_l/hip_adduction_l/accel	/jointset/hip_l/hip_rotation_l/accel	/jointset/back/lumbar_extension/accel	/jointset/patellofemoral_l/patellar_flexion_l/accel	/jointset/knee_l/knee_flexion_l/accel	/jointset/knee_l/knee_adduction_l/accel	/jointset/knee_l/knee_rotation_l/accel	/jointset/ankle_l/ankle_angle_l/accel	/jointset/subtalar_l/subtalar_angle_l/accel	gamma_cid13_p0	gamma_cid13_p1	gamma_cid13_p2	gamma_cid13_p3	gamma_cid13_p4	gamma_cid13_p5	gamma_cid14_p0
1	-0.7975950588075706	-0.1923270833808371	0.5825690218429519	2.019393045708774	-0.4758246706709837	-0.08697746775963794	-0.2617989822916887	1.066593093550626	1.066593093550556	-0.1714609697362368	-0.1745325272878139	-0.08656464802541607	-0.1700343307282444	-0.01784543140927356	0.01104217581592686	0.005106613158494407	-0.001605110567320492	0.0001946289816076516	0.002007670134448282	3.163409402973574e-06	0.0008648123971926331	0.0008648123971926464	-0.00116087843067866	-2.313897234277816e-07	0.02145104476956922	0.009550546231130519	-0.4546233673620209	0.0161550542380993	0.0003317079034136118	-0.1731250358928131	0.153877351195745	0.0823272378119415	0.3595632099734233	7.400428388120295	-37.28696826055286	5.878770949359024	-6.333860690437615	-646.5543970951629	-39.19377907912085	-13.84747503657472	2.637076327911167	0.6907622003345312	1.824577347398143	-7.391610129454398	0.1691801680338588	-1.978419958067845	-0.0301781532325246	-3.975707325776611	-3.975707325776358	-0.09914362216434114	-0.0193506298958044	0.3324319190926909	0.337385148445437	3.81813084694118e-09	8.320086534766612e-09	-7.300250569245904e-09	1.540672636836887e-09	-2.581572367303518e-09	6.527688325969513e-09	2.458679087907146e-09
1.01	-0.797643115896853	-0.192182244694527	0.5827111583638341	2.019009187523434	-0.4758134087567699	-0.08705619311337517	-0.2617989368897392	1.066402825831599	1.066402825831585	-0.1714761900300563	-0.1745325319093916	-0.08633349932621019	-0.1699210963997389	0.008232400197518868	0.01792859395210248	0.02331621420406771	-0.07515707448638036	0.002059717675838795	-0.01775088177386458	5.187569076177831e-06	-0.03891390767507361	-0.03891390767507312	-0.001880810996363807	-6.220038960895152e-07	0.02477643407972111	0.01309754122848908	-0.4543961319988588	0.01619244342621107	0.000334540434545946	-0.1731152709168995	0.153764639656979	0.08231292860652065	0.3594068698313762	7.37831002764643	-37.28176510615222	5.88352015560235	-6.408372154208672	-646.387401028757	-39.23706444555428	-13.85581304711157	2.592894112064829	0.6880356662743169	1.818478411298819	-7.335572329908834	0.1954703033360865	-1.974296041422648	0.01528328918379869	-3.978286469736501	-3.978286469736611	-0.0580646356391445	0.00962832526547028	0.3322536660122637	0.3635399560681933	1.540056415526242e-09	-4.28992298861941e-10	1.547944803784795e-10	-4.092130283421337e-09	-7.6969031023581e-09	2.737461180302818e-08	-2.940866943971395e-09
1.02	-0.7974304431630637	-0.1919684510176522	0.5830352562808047	2.017890093137547	-0.4757834365389698	-0.08733244863303749	-0.2617988931284975	1.065814904487491	1.065814904487536	-0.1714985389619043	-0.1745325381165922	-0.08606916448809525	-0.1697723554651223	0.03430053320437192	0.02483317392886223	0.04149889237614247	-0.1486523506765253	0.003936689698803532	-0.03749836305056136	2.835273410661687e-06	-0.07866591261873354	-0.07866591261873317	-0.002586606036791311	-5.48520329648573e-07	0.02808827255130694	0.01665186745333319	-0.4541688966357047	0.01622983261431939	0.0003373729656856615	-0.1731055059409803	0.1536519281182158	0.08229861940109753	0.3592505296893194	7.354165037833509	-37.27780503976911	5.890292938439492	-6.511514959270295	-646.2727960274394	-39.28477938605207	-13.88131888095803	2.635136607923321	0.6943945684513296	1.819192772698421	-7.380272583671386	0.1715568337805941	-1.976205831744614	-0.03105344430029988	-3.970364300055357	-3.970364300055219	-0.09631611711279781	-0.01925781034795382	0.3297217513794288	0.3388513939425414	-8.722776229813719e-10	-9.036838361993871e-09	8.249541507689895e-09	-9.39069861316011e-09	-1.285007145626113e-08	4.809952593142441e-08	-8.344604927481818e-09
1.03	-0.7969571299837482	-0.1916854935881326	0.5835409781065097	2.016036460345895	-0.4757346124236563	-0.08780605601907222	-0.2617988951319118	1.064829670969781	1.064829670969847	-0.1715278963016983	-0.1745325482751729	-0.08577183067505585	-0.1695880339363691	0.06036001862540387	0.03176392502976691	0.059634159937488	-0.2220504491021353	0.005833417540106436	-0.05721368788627317	-2.72458769106188e-06	-0.1183693990358702	-0.1183693990358693	-0.003283638387314005	-4.881334998813171e-07	0.03137119619309823	0.02021479408065529	-0.4535265101917783	0.016291152898948	0.0003379971294879631	-0.1731258125865537	0.1535050049516189	0.08229836600953183	0.3588249472372598	7.33577297973489	-37.28390315822599	5.902034658815813	-6.623714361252642	-645.8790233166932	-39.42218494127523	-13.92403102168604	2.591040007695913	0.693254369745937	1.808993191742758	-7.316016929002219	0.1995276368036166	-1.967790748652311	0.01476944766103968	-3.968629247012851	-3.968629247012885	-0.0562197656361214	0.009793847648392131	0.3264840556780785	0.3653675573498403	-3.285981657479728e-09	-1.764324327440645e-08	1.63508161062022e-08	-1.468585638585277e-08	-1.800362590831567e-08	6.882319506646693e-08	-1.374838568600889e-08
1.04	-0.7962232848505195	-0.1913330608498369	0.5842277124966064	2.013449558878589	-0.4756666616544294	-0.08847653564129188	-0.2617989373929706	1.063447744901003	1.063447744901091	-0.1715641885593257	-0.1745325266529958	-0.08544188634857788	-0.169368012289298	0.0864069239865462	0.03872823568408831	0.07770140525445872	-0.2953060858076046	0.007762020481346037	-0.07687281028869655	-5.216261747313429e-06	-0.1580044228318075	-0.158004422831807	-0.003973589602400889	5.807631328604573e-06	0.03461037523885396	0.02379189111688993	-0.4528841237478403	0.01635247318358591	0.0003386212932649967	-0.1731461192321231	0.1533580817850253	0.08229811261797715	0.3583993647852096	7.315299702267115	-37.29122377742405	5.915784071344628	-6.764129594965419	-645.5384945335791	-39.56414825597871	-13.98390546253789	2.632620595945439	0.7011064791346335	1.805588323823441	-7.351780239643204	0.1779318537679759	-1.964965345086874	-0.03043980689125546	-3.9566717758155	-3.956671775815545	-0.09489989002561398	-0.0180107347481276	0.320972832172255	0.3416854757250647	-5.616933564844239e-09	-2.607308582770257e-08	2.402751621091729e-08	-1.982079247234679e-08	-2.289772738653021e-08	8.833367226338986e-08	-1.892466481586938e-08
1.05	-0.7952290167879339	-0.1909107870555981	0.5850947086359937	2.010130936503343	-0.4755792709594305	-0.08934331127934293	-0.2617990046261646	1.061669905722159	1.061669905722278	-0.1716073614526852	-0.1745324819135598	-0.08507981756428266	-0.1691121741417334	0.1124439268898834	0.04573487528424996	0.0956794131180795	-0.3683799870835565	0.009722948395581707	-0.09647006705113471	-6.810532279786424e-06	-0.1975433964112919	-0.1975433964112939	-0.004659412260196531	2.501265261243074e-07	0.03779152887713969	0.02737772801059296	-0.4518103611879586	0.01642532038626734	0.0003356950307777952	-0.173204990045493	0.1531976397395033	0.08230682938625972	0.3576922374773336	7.30788700832312	-37.30829110870965	5.935158343888179	-6.921652712739474	-644.9077265533924	-39.79346732876105	-14.0609822627748	2.588822626610115	0.7016904765297806	1.791139985750436	-7.279438540866829	0.2062037124314237	-1.955283677921233	0.01519374013753684	-3.949502799090632	-3.949502799090998	-0.05519780835054401	0.007750229300200097	0.3149092397732444	0.3673330515346236	-7.945299468235817e-09	-3.44974108072763e-08	3.169094836270121e-08	-2.49507216311471e-08	-2.778372095931226e-08	1.078062372122466e-07	-2.409383451983403e-08
